<mxfile host="app.diagrams.net" modified="2024-06-11T03:55:52.226Z" agent="Mozilla/5.0 (Windows NT 10.0; Win64; x64) AppleWebKit/537.36 (KHTML, like Gecko) Chrome/125.0.0.0 Safari/537.36" version="24.5.2" etag="RDnWqH-_kNJH_RII3dD4" type="github">
  <diagram name="第1頁" id="1_Itgkwhxsi6Gp2qj_NC">
    <mxGraphModel>
      <root>
        <mxCell id="0" />
        <mxCell id="1" parent="0" />
      </root>
    </mxGraphModel>
  </diagram>
</mxfile>
